<svg xmlns:xlink="http://www.w3.org/1999/xlink" width="24" height="24" viewBox="0 0 24 24" fill="none" xmlns="http://www.w3.org/2000/svg" data-testid="svg_IconShoppingBagNumberOutlined" class="lvL2s" role="img" title="Shopping Bag"><path fill-rule="evenodd" clip-rule="evenodd" d="M12 0C9.79086 0 8 1.79086 8 4V6H4C2.89543 6 2 6.89543 2 8V20C2 22.2091 3.79086 24 6 24H18C20.2091 24 22 22.2091 22 20V8C22 6.89543 21.1046 6 20 6H16V4C16 1.79086 14.2091 0 12 0ZM14 8V9C14 9.55228 14.4477 10 15 10C15.5523 10 16 9.55228 16 9V8H20V20C20 21.1046 19.1046 22 18 22H6C4.89543 22 4 21.1046 4 20V8H8V9C8 9.55228 8.44772 10 9 10C9.55228 10 10 9.55228 10 9V8H14ZM14 6V4C14 2.89543 13.1046 2 12 2C10.8954 2 10 2.89543 10 4V6H14Z" fill="#191A1B"></path></svg>