<svg xmlns:xlink="http://www.w3.org/1999/xlink" width="24" height="24" viewBox="0 0 24 24" fill="none" xmlns="http://www.w3.org/2000/svg" data-testid="svg_IconPhoneArrow"><path d="M12 9C12.5523 9 13 9.44771 13 10V16.5858L15.2929 14.2929C15.6834 13.9024 16.3166 13.9024 16.7071 14.2929C17.0976 14.6834 17.0976 15.3166 16.7071 15.7071L12.7071 19.7071C12.3166 20.0976 11.6834 20.0976 11.2929 19.7071L7.29289 15.7071C6.90237 15.3166 6.90237 14.6834 7.29289 14.2929C7.68342 13.9024 8.31658 13.9024 8.70711 14.2929L11 16.5858V10C11 9.44771 11.4477 9 12 9Z" fill="#191A1B"></path><path d="M10 3C9.44772 3 9 3.44772 9 4C9 4.55228 9.44772 5 10 5H14C14.5523 5 15 4.55228 15 4C15 3.44772 14.5523 3 14 3H10Z" fill="#191A1B"></path><path fill-rule="evenodd" clip-rule="evenodd" d="M3 3C3 1.34314 4.34315 0 6 0H18C19.6569 0 21 1.34315 21 3V21C21 22.6569 19.6569 24 18 24H6C4.34315 24 3 22.6569 3 21V3ZM6 2C5.44771 2 5 2.44772 5 3V21C5 21.5523 5.44772 22 6 22H18C18.5523 22 19 21.5523 19 21V3C19 2.44772 18.5523 2 18 2H6Z" fill="#191A1B"></path></svg>