<svg xmlns:xlink="http://www.w3.org/1999/xlink" width="24" height="24" viewBox="0 0 24 24" fill="none" xmlns="http://www.w3.org/2000/svg" data-testid="svg_IconInstagram"><path fill-rule="evenodd" clip-rule="evenodd" d="M7 12C7 9.23858 9.23858 7 12 7C14.7614 7 17 9.23858 17 12C17 14.7614 14.7614 17 12 17C9.23858 17 7 14.7614 7 12ZM12 9C10.3431 9 9 10.3431 9 12C9 13.6569 10.3431 15 12 15C13.6569 15 15 13.6569 15 12C15 10.3431 13.6569 9 12 9Z" fill="#191A1B"></path><path d="M17.25 8C17.9404 8 18.5 7.44036 18.5 6.75C18.5 6.05964 17.9404 5.5 17.25 5.5C16.5596 5.5 16 6.05964 16 6.75C16 7.44036 16.5596 8 17.25 8Z" fill="#191A1B"></path><path fill-rule="evenodd" clip-rule="evenodd" d="M7.85848 2.06994C6.79447 2.12014 6.06786 2.28994 5.43265 2.53954C4.77524 2.79574 4.21804 3.13954 3.66363 3.69594C3.10923 4.25235 2.76782 4.80995 2.51342 5.46835C2.26722 6.10495 2.10042 6.83215 2.05342 7.89676C2.00642 8.96136 1.99602 9.30356 2.00122 12.0192C2.00642 14.7348 2.01842 15.0752 2.07002 16.142C2.12082 17.2058 2.29002 17.9322 2.53962 18.5676C2.79622 19.225 3.13963 19.782 3.69623 20.3366C4.25284 20.8912 4.81004 21.2318 5.47005 21.4866C6.10606 21.7324 6.83347 21.9 7.89788 21.9466C8.96229 21.9932 9.30489 22.004 12.0197 21.9988C14.7345 21.9936 15.0763 21.9816 16.143 21.931C17.6954 21.8574 19.2158 21.4311 20.3368 20.3048C21.4582 19.1782 21.8789 17.6578 21.9464 16.1042C21.993 15.0368 22.004 14.696 21.9988 11.9808C21.9936 9.26556 21.9814 8.92516 21.9308 7.85876C21.8571 6.30466 21.4311 4.78658 20.305 3.66334C19.1798 2.54101 17.6566 2.12084 16.1038 2.05374C15.0393 2.00774 14.6967 1.99594 11.9809 2.00114C9.26509 2.00634 8.92509 2.01794 7.85848 2.06994ZM7.95587 4.06757L7.95273 4.06772C7.07742 4.10901 6.56983 4.24156 6.1641 4.40099L6.15888 4.40304C5.7435 4.56492 5.42601 4.76075 5.08039 5.10761C4.73463 5.45461 4.54006 5.77236 4.379 6.1892C4.221 6.59773 4.09019 7.108 4.05147 7.98497C4.00653 9.00294 3.99603 9.30863 4.00121 12.0153C4.00639 14.7216 4.01834 15.0253 4.06768 16.0454L4.06774 16.0466C4.10961 16.9233 4.24188 17.4309 4.40114 17.8363L4.40273 17.8404C4.5653 18.2569 4.76111 18.5743 5.10789 18.9198C5.45429 19.265 5.77118 19.459 6.19035 19.6208C6.59953 19.779 7.1103 19.9102 7.98535 19.9485C9.00391 19.9931 9.31064 20.004 12.0159 19.9988C14.7212 19.9936 15.0273 19.9817 16.0482 19.9333C17.329 19.8725 18.2833 19.5328 18.9193 18.8939C19.5568 18.2534 19.8927 17.298 19.9483 16.0174C19.9929 14.9955 20.004 14.6898 19.9988 11.9846C19.9936 9.27925 19.9815 8.97444 19.9331 7.95355C19.8723 6.67192 19.5332 5.7183 18.8926 5.07934C18.2549 4.44326 17.2988 4.10725 16.0174 4.05187C14.9973 4.00779 14.6894 3.99596 11.9847 4.00113C9.27761 4.00632 8.9749 4.01788 7.95587 4.06757Z" fill="#191A1B"></path></svg>