<svg xmlns:xlink="http://www.w3.org/1999/xlink" width="24" height="24" viewBox="0 0 24 24" fill="none" xmlns="http://www.w3.org/2000/svg" data-testid="svg_IconOneAccount" class="_AU06"><path d="M8.54528 17.3751C8.42028 17.3751 8.30778 17.2626 8.30778 17.1376V8.72508C8.30778 8.60008 8.42028 8.50008 8.54528 8.50008H8.73278C8.82028 8.50008 8.88278 8.52508 8.94528 8.58758L14.0453 14.0251H14.0703V8.86258C14.0703 8.73758 14.1703 8.62508 14.3078 8.62508H15.4578C15.5828 8.62508 15.6953 8.73758 15.6953 8.86258V17.2751C15.6953 17.4001 15.5828 17.5001 15.4578 17.5001H15.2828C15.1953 17.5001 15.1328 17.4751 15.0703 17.4126L9.94528 11.7626H9.92028V17.1376C9.92028 17.2626 9.82028 17.3751 9.68278 17.3751H8.54528Z" fill="#191A1B"></path><path fill-rule="evenodd" clip-rule="evenodd" d="M12 3C15.8276 3 19.0273 5.688 19.8145 9.27925C22.2413 10.0483 24 12.3187 24 15C24 18.3137 21.3137 21 18 21H6C2.68629 21 0 18.3137 0 15C0 12.3187 1.75873 10.0483 4.18552 9.27925C4.97271 5.688 8.17245 3 12 3ZM4.78968 11.1858C5.47147 10.9698 5.986 10.4061 6.13913 9.70748C6.72942 7.01452 9.1318 5 12 5C14.8682 5 17.2706 7.01452 17.8609 9.70748C18.014 10.4061 18.5285 10.9698 19.2103 11.1858C20.83 11.6991 22 13.2155 22 15C22 17.2091 20.2091 19 18 19H6C3.79086 19 2 17.2091 2 15C2 13.2155 3.16995 11.6991 4.78968 11.1858Z" fill="#191A1B"></path></svg>