<svg xmlns:xlink="http://www.w3.org/1999/xlink" width="24" height="24" viewBox="0 0 24 24" fill="none" xmlns="http://www.w3.org/2000/svg" data-testid="svg_IconBoxOutlined" class="fAVHJ"><path fill-rule="evenodd" clip-rule="evenodd" d="M11.1877 1.26662C11.7049 1.03678 12.2951 1.03678 12.8123 1.26662L22.4061 5.53055C22.7673 5.69106 23 6.04918 23 6.44437V16.9056C23 17.696 22.5345 18.4122 21.8123 18.7332L12.8123 22.7332C12.2951 22.9631 11.7049 22.9631 11.1877 22.7332L2.18772 18.7332C1.46547 18.4122 1 17.696 1 16.9056V6.44437C1 6.04918 1.23273 5.69106 1.59386 5.53055L11.1877 1.26662ZM3 16.9056L11 20.4612V11.6373L3 7.91115V16.9056ZM4.52642 6.41583L6.97136 7.55468L14.3272 4.12854L12 3.09424L4.52642 6.41583ZM16.7511 5.20584L9.33984 8.65781L12 9.89677L19.4735 6.4158L16.7511 5.20584ZM21 7.91111L13 11.6373V20.4612L21 16.9056V7.91111Z" fill="#191A1B"></path></svg>