<svg xmlns:xlink="http://www.w3.org/1999/xlink" width="24" height="24" viewBox="0 0 24 24" fill="none" xmlns="http://www.w3.org/2000/svg" data-testid="svg_IconStoreRackOutlined" class="fAVHJ"><path fill-rule="evenodd" clip-rule="evenodd" d="M12.3687 13.5H16.2624L15.9424 11.3456C15.8141 10.4604 15.1423 10.1721 14.0755 10.1296L12.8596 10.0871V9.74543L13.9689 9.63875C15.1531 9.52126 15.8782 8.93454 15.8782 7.72939V7.42017C15.8782 6.28926 15.089 5.5 13.9581 5.5H7.75V13.5H11.5262V10.8223H11.9637L12.3687 13.5ZM12.1021 9.12699H11.5262V7.47351H12.1021V9.12699Z" fill="#191A1B"></path><path fill-rule="evenodd" clip-rule="evenodd" d="M2 4C2 2.89543 2.89543 2 4 2H20C21.1046 2 22 2.89543 22 4V20C22 21.1046 21.1046 22 20 22H4C2.89543 22 2 21.1046 2 20V4ZM4 4H20V20H17V16C17 15.4477 16.5523 15 16 15H8C7.44772 15 7 15.4477 7 16V20H4V4ZM9 20H11V17H9V20ZM13 20H15V17H13V20Z" fill="#191A1B"></path></svg>